<?xml version="1.0" encoding="UTF-8" standalone="no"?>
<!DOCTYPE svg PUBLIC "-//W3C//DTD SVG 1.1//EN" "http://www.w3.org/Graphics/SVG/1.1/DTD/svg11.dtd">
<svg width="100%" height="100%" viewBox="0 0 287 109" version="1.1" xmlns="http://www.w3.org/2000/svg" xmlns:xlink="http://www.w3.org/1999/xlink" xml:space="preserve" xmlns:serif="http://www.serif.com/" style="fill-rule:evenodd;clip-rule:evenodd;stroke-linejoin:round;stroke-miterlimit:1.41421;">
    <g id="flowRoot3044" transform="matrix(1,0,0,1,-84.8867,-489.507)">
        <path id="path3055" d="M84.887,597.938L102.31,597.938L102.31,550.85L128.806,550.85L128.806,535.154L102.31,535.154L102.31,505.203L141.478,505.203L141.478,489.507L84.887,489.507L84.887,597.938Z" style="fill:white;fill-rule:nonzero;"/>
        <path id="path3057" d="M149.032,512.115L166.168,512.115L166.168,490.227L149.032,490.227L149.032,512.115ZM166.168,597.938L166.168,516.723L149.032,516.723L149.032,597.938L166.168,597.938Z" style="fill:white;fill-rule:nonzero;"/>
        <path id="path3059" d="M173.343,598.226L191.199,598.226L191.199,505.491L205.455,505.491C209.373,505.431 212.805,505.551 215.751,505.851C218.697,506.151 221.409,506.991 223.887,508.371C226.796,510.639 229.076,513.375 230.726,516.579C232.376,519.783 233.216,523.239 233.246,526.946C233.237,530.636 232.571,533.984 231.248,536.99C229.925,539.996 227.999,542.552 225.471,544.658C222.912,546.797 219.678,548.099 215.769,548.564C211.86,549.029 207.942,549.215 204.015,549.122L200.415,549.122L229.646,598.226L248.222,598.226L222.447,557.618C226.769,557.066 230.723,555.974 234.308,554.342C237.893,552.71 241.091,549.962 243.902,546.098C245.654,543.266 247.046,540.11 248.078,536.63C249.11,533.15 249.638,529.49 249.662,525.65C249.644,519.432 248.42,513.726 245.99,508.533C243.56,503.34 240.032,499.254 235.406,496.275C232.631,494.499 228.785,493.011 223.869,491.811C218.952,490.611 212.334,489.987 204.015,489.939L173.343,489.939L173.343,598.226Z" style="fill:white;fill-rule:nonzero;"/>
        <path id="path3061" d="M299.635,537.17C291.388,534.362 285.31,531.878 281.401,529.718C277.492,527.558 275.554,523.995 275.587,519.027C275.752,514.359 277.33,510.663 280.321,507.939C283.312,505.215 286.726,503.823 290.563,503.763C291.136,503.724 292.51,503.766 294.685,503.889C296.86,504.012 301.582,504.45 308.851,505.203L322.531,490.227L290.563,490.227C282.628,490.254 275.458,492.828 269.054,497.949C262.649,503.07 259.259,510.576 258.884,520.467C259.061,526.984 260.723,532.141 263.87,535.938C267.018,539.736 270.589,542.525 274.585,544.306C278.58,546.088 281.938,547.213 284.659,547.682C291.46,550.457 296.902,553.007 300.985,555.332C305.068,557.657 307.162,561.683 307.267,567.41C307.138,572.075 305.488,575.993 302.317,579.164C299.146,582.335 295.228,583.985 290.563,584.114L270.98,584.114L257.444,597.649L290.563,597.649C301.972,597.359 310.402,594.125 315.853,587.948C321.304,581.771 324.01,574.397 323.971,565.826C323.731,557.747 321.223,551.621 316.447,547.448C311.671,543.275 306.067,539.849 299.635,537.17Z" style="fill:white;fill-rule:nonzero;"/>
        <path id="path3063" d="M330.843,490.083L330.843,505.779L354.315,505.779L354.315,597.794L371.451,597.794L371.451,505.779L371.451,490.083L354.315,490.083L330.843,490.083Z" style="fill:white;fill-rule:nonzero;"/>
    </g>
</svg>
