<?xml version="1.0" encoding="UTF-8" standalone="no"?>
<!DOCTYPE svg PUBLIC "-//W3C//DTD SVG 1.1//EN" "http://www.w3.org/Graphics/SVG/1.1/DTD/svg11.dtd">
<svg width="100%" height="100%" viewBox="0 0 238 92" version="1.1" xmlns="http://www.w3.org/2000/svg" xmlns:xlink="http://www.w3.org/1999/xlink" xml:space="preserve" xmlns:serif="http://www.serif.com/" style="fill-rule:evenodd;clip-rule:evenodd;stroke-linejoin:round;">
    <path id="path3000" d="M46.192,46.85C46.166,44.665 49.125,45.737 49.824,46.807C51.719,49.706 49.082,53.185 46.279,54.115C41.264,55.777 36.371,51.768 35.295,46.98C33.716,39.954 39.252,33.481 46.018,32.321C55.036,30.775 63.133,37.89 64.353,46.633C65.888,57.635 57.173,67.376 46.452,68.644C33.468,70.178 22.074,59.853 20.766,47.154C19.224,32.189 31.167,19.137 45.844,17.792C62.79,16.24 77.504,29.804 78.882,46.459C80.448,65.384 65.26,81.763 46.626,83.173C25.722,84.754 7.677,67.94 6.237,47.328C4.638,24.444 23.08,4.733 45.671,3.263" style="fill:none;stroke:white;stroke-opacity:0.75;stroke-width:7px;"/>
    <g id="flowRoot3770" transform="matrix(1.2723,0,0,1.2723,-23.5495,4.53018)">
        <path id="path3782" d="M99.469,25.073C98.706,24.388 97.832,23.869 96.847,23.516C95.862,23.164 94.88,22.987 93.901,22.985C92.241,22.972 90.749,23.389 89.425,24.236C88.101,25.084 87.401,26.442 87.325,28.313C87.371,29.816 87.825,30.925 88.687,31.64C89.549,32.354 90.543,32.869 91.669,33.185C92.792,33.52 93.659,33.852 94.27,34.181C94.88,34.51 95.189,34.986 95.197,35.609C95.177,36.284 94.941,36.763 94.489,37.046C94.037,37.328 93.489,37.465 92.845,37.457C92.155,37.446 91.477,37.275 90.811,36.944C90.145,36.612 89.599,36.183 89.173,35.657L86.485,38.393C87.249,39.177 88.192,39.78 89.314,40.202C90.435,40.623 91.612,40.836 92.845,40.841C94.586,40.849 96.09,40.394 97.357,39.476C98.624,38.557 99.288,37.124 99.349,35.177C99.273,33.53 98.681,32.348 97.573,31.631C96.465,30.914 95.297,30.392 94.069,30.065C93.256,29.832 92.619,29.578 92.158,29.303C91.696,29.028 91.461,28.618 91.453,28.073C91.486,27.414 91.75,26.962 92.245,26.717C92.74,26.472 93.268,26.356 93.829,26.369C94.373,26.374 94.922,26.507 95.476,26.768C96.029,27.028 96.488,27.383 96.853,27.833L99.469,25.073Z" style="fill:white;fill-rule:nonzero;"/>
        <path id="path3784" d="M115.16,34.385C115.141,32.664 114.632,31.203 113.633,30.002C112.633,28.8 111.254,28.173 109.496,28.121C108.616,28.136 107.851,28.316 107.201,28.661C106.552,29.006 106.045,29.426 105.68,29.921L105.608,29.921L105.608,28.457L101.864,28.457L101.864,46.169L105.8,46.169L105.8,39.089L105.848,39.089C106.233,39.609 106.747,40.014 107.39,40.304C108.033,40.593 108.727,40.74 109.472,40.745C111.284,40.688 112.682,40.045 113.666,38.816C114.65,37.586 115.148,36.109 115.16,34.385ZM111.344,34.385C111.344,35.196 111.11,35.907 110.642,36.518C110.174,37.128 109.472,37.449 108.536,37.481C107.639,37.45 106.937,37.133 106.43,36.53C105.923,35.926 105.665,35.219 105.656,34.409C105.665,33.619 105.923,32.918 106.43,32.306C106.937,31.693 107.639,31.37 108.536,31.337C109.472,31.368 110.174,31.684 110.642,32.285C111.11,32.886 111.344,33.586 111.344,34.385Z" style="fill:white;fill-rule:nonzero;"/>
        <path id="path3786" d="M121.886,24.641C121.87,24.026 121.65,23.516 121.226,23.111C120.802,22.706 120.27,22.496 119.63,22.481C118.98,22.499 118.445,22.715 118.025,23.129C117.606,23.543 117.389,24.047 117.374,24.641C117.389,25.246 117.606,25.752 118.025,26.162C118.445,26.571 118.98,26.784 119.63,26.801C120.27,26.787 120.802,26.58 121.226,26.18C121.65,25.779 121.87,25.267 121.886,24.641ZM121.598,40.409L121.598,28.457L117.662,28.457L117.662,40.409L121.598,40.409Z" style="fill:white;fill-rule:nonzero;"/>
        <path id="path3788" d="M132.659,28.217C132.559,28.181 132.434,28.156 132.284,28.142C132.134,28.127 131.979,28.12 131.819,28.121C131.081,28.132 130.433,28.326 129.875,28.703C129.317,29.08 128.885,29.574 128.579,30.185L128.531,30.185L128.531,28.457L124.739,28.457L124.739,40.409L128.675,40.409L128.675,34.265C128.66,33.721 128.864,33.146 129.287,32.54C129.71,31.933 130.442,31.604 131.483,31.553C131.639,31.552 131.801,31.56 131.969,31.577C132.137,31.594 132.311,31.626 132.491,31.673L132.659,28.217Z" style="fill:white;fill-rule:nonzero;"/>
        <path id="path3790" d="M141.311,35.609C141.307,36.362 141.093,36.956 140.669,37.391C140.245,37.826 139.635,38.048 138.839,38.057C138.421,38.063 138.038,37.973 137.69,37.787C137.341,37.601 137.156,37.283 137.135,36.833C137.18,36.145 137.576,35.696 138.323,35.486C139.07,35.275 139.898,35.18 140.807,35.201L141.311,35.201L141.311,35.609ZM136.079,32.225C136.446,31.88 136.887,31.592 137.402,31.361C137.916,31.13 138.459,31.01 139.031,31.001C139.656,30.999 140.169,31.14 140.57,31.424C140.97,31.707 141.177,32.142 141.191,32.729L141.191,32.921C140,32.907 138.821,32.999 137.653,33.198C136.485,33.397 135.51,33.788 134.729,34.372C133.947,34.955 133.541,35.815 133.511,36.953C133.573,38.337 134.06,39.312 134.972,39.878C135.883,40.443 136.844,40.716 137.855,40.697C138.578,40.693 139.244,40.556 139.853,40.286C140.462,40.015 140.924,39.632 141.239,39.137L141.311,39.137L141.311,40.409L144.911,40.409L144.911,34.385C144.932,32.221 144.517,30.626 143.666,29.6C142.814,28.573 141.397,28.064 139.415,28.073C138.429,28.074 137.472,28.245 136.544,28.586C135.615,28.926 134.796,29.427 134.087,30.089L136.079,32.225Z" style="fill:white;fill-rule:nonzero;"/>
        <rect id="path3792" x="147.896" y="22.265" width="3.984" height="18.144" style="fill:white;fill-rule:nonzero;"/>
        <path id="path3794" d="M161.188,24.953L166.876,24.953L166.876,23.417L153.772,23.417L153.772,24.953L159.46,24.953L159.46,40.409L161.188,40.409L161.188,24.953Z" style="fill:white;fill-rule:nonzero;"/>
        <path id="path3796" d="M170.244,33.929C170.334,32.936 170.735,32.084 171.447,31.373C172.158,30.662 173.069,30.29 174.18,30.257C175.347,30.278 176.246,30.626 176.877,31.301C177.507,31.976 177.848,32.852 177.9,33.929L170.244,33.929ZM179.556,34.457C179.552,32.881 179.097,31.569 178.191,30.521C177.284,29.473 175.947,28.929 174.18,28.889C172.547,28.923 171.204,29.484 170.151,30.572C169.097,31.659 168.552,33.066 168.516,34.793C168.549,36.519 169.1,37.926 170.169,39.014C171.237,40.101 172.622,40.662 174.324,40.697C175.251,40.703 176.121,40.517 176.934,40.139C177.747,39.761 178.485,39.155 179.148,38.321L177.924,37.361C177.606,37.883 177.138,38.333 176.52,38.711C175.902,39.089 175.17,39.287 174.324,39.305C173.148,39.276 172.182,38.878 171.426,38.111C170.67,37.344 170.268,36.382 170.22,35.225L179.532,35.225C179.552,34.933 179.56,34.677 179.556,34.457Z" style="fill:white;fill-rule:nonzero;"/>
        <path id="path3798" d="M192.426,30.833C191.927,30.185 191.3,29.699 190.545,29.375C189.791,29.051 189.026,28.889 188.25,28.889C186.415,28.923 184.962,29.484 183.891,30.572C182.821,31.659 182.274,33.066 182.25,34.793C182.274,36.519 182.821,37.926 183.891,39.014C184.962,40.101 186.415,40.662 188.25,40.697C189.219,40.689 190.054,40.512 190.755,40.166C191.457,39.819 192.046,39.348 192.522,38.753L191.298,37.841C190.976,38.28 190.564,38.632 190.062,38.897C189.56,39.162 188.956,39.298 188.25,39.305C186.928,39.276 185.889,38.842 185.133,38.003C184.378,37.164 183.993,36.094 183.978,34.793C183.994,33.48 184.383,32.403 185.145,31.562C185.908,30.72 186.951,30.285 188.274,30.257C188.897,30.265 189.464,30.405 189.975,30.677C190.487,30.949 190.88,31.305 191.154,31.745L192.426,30.833Z" style="fill:white;fill-rule:nonzero;"/>
        <path id="path3800" d="M196.746,31.025L196.746,22.265L195.114,22.265L195.114,40.409L196.746,40.409L196.746,34.649C196.78,33.153 197.132,32.046 197.802,31.328C198.472,30.609 199.256,30.252 200.154,30.257C201.31,30.274 202.112,30.636 202.56,31.343C203.008,32.05 203.222,33 203.202,34.193L203.202,40.409L204.834,40.409L204.834,33.521C204.835,32.11 204.48,30.99 203.769,30.161C203.059,29.332 201.99,28.908 200.562,28.889C199.75,28.897 198.999,29.091 198.309,29.471C197.62,29.851 197.115,30.369 196.794,31.025L196.746,31.025Z" style="fill:white;fill-rule:nonzero;"/>
    </g>
</svg>
