<?xml version="1.0" encoding="UTF-8" standalone="no"?>
<!DOCTYPE svg PUBLIC "-//W3C//DTD SVG 1.1//EN" "http://www.w3.org/Graphics/SVG/1.1/DTD/svg11.dtd">
<svg width="100%" height="100%" viewBox="0 0 257 53" version="1.1" xmlns="http://www.w3.org/2000/svg" xmlns:xlink="http://www.w3.org/1999/xlink" xml:space="preserve" xmlns:serif="http://www.serif.com/" style="fill-rule:evenodd;clip-rule:evenodd;stroke-linejoin:round;stroke-miterlimit:1.41421;">
    <g id="text3017" transform="matrix(1,0,0,1,-14.4391,140.839)">
        <path id="path3324" d="M76.369,-101.583C76.373,-101.397 76.437,-101.238 76.562,-101.106C76.688,-100.974 76.851,-100.905 77.053,-100.899L85.981,-100.899C88.182,-100.936 90.025,-101.59 91.511,-102.861C92.997,-104.131 93.769,-105.793 93.829,-107.847C93.747,-109.491 93.181,-110.784 92.132,-111.726C91.083,-112.668 90.04,-113.331 89.005,-113.715C89.919,-114.172 90.826,-114.886 91.727,-115.857C92.628,-116.827 93.112,-118.009 93.181,-119.403C93.124,-121.335 92.365,-122.924 90.904,-124.168C89.443,-125.412 87.622,-126.056 85.441,-126.098L77.053,-126.098C76.851,-126.092 76.688,-126.023 76.562,-125.891C76.437,-125.759 76.373,-125.6 76.369,-125.414L76.369,-101.583ZM81.985,-115.875L81.985,-120.915L84.793,-120.915C85.496,-120.903 86.087,-120.675 86.566,-120.231C87.044,-119.787 87.293,-119.199 87.313,-118.467C87.293,-117.729 87.044,-117.117 86.566,-116.631C86.087,-116.145 85.496,-115.893 84.793,-115.875L81.985,-115.875ZM81.985,-106.047L81.985,-111.195L84.901,-111.195C85.638,-111.18 86.306,-110.94 86.903,-110.475C87.501,-110.01 87.817,-109.41 87.853,-108.675C87.832,-107.919 87.576,-107.297 87.083,-106.807C86.591,-106.317 85.983,-106.064 85.261,-106.047L81.985,-106.047Z" style="fill:white;fill-rule:nonzero;"/>
        <path id="path3326" d="M98.377,-101.583C98.38,-101.397 98.445,-101.238 98.57,-101.106C98.695,-100.974 98.859,-100.905 99.061,-100.899L103.345,-100.899C103.531,-100.905 103.69,-100.974 103.822,-101.106C103.954,-101.238 104.023,-101.397 104.029,-101.583L104.029,-110.763L106.513,-110.763L111.301,-101.223C111.338,-101.146 111.407,-101.074 111.508,-101.007C111.608,-100.939 111.731,-100.903 111.877,-100.899L116.664,-100.899C116.973,-100.913 117.183,-101.029 117.294,-101.245C117.405,-101.462 117.399,-101.695 117.276,-101.943L112.345,-111.087C113.937,-111.732 115.216,-112.682 116.183,-113.935C117.15,-115.188 117.646,-116.651 117.672,-118.323C117.615,-120.521 116.847,-122.352 115.369,-123.817C113.89,-125.282 112.042,-126.042 109.825,-126.098L99.061,-126.098C98.859,-126.092 98.695,-126.023 98.57,-125.891C98.445,-125.759 98.38,-125.6 98.377,-125.414L98.377,-101.583ZM104.029,-115.335L104.029,-120.951L109.357,-120.951C110.116,-120.931 110.757,-120.664 111.278,-120.15C111.799,-119.635 112.071,-118.99 112.093,-118.215C112.071,-117.433 111.799,-116.764 111.278,-116.208C110.757,-115.651 110.116,-115.36 109.357,-115.335L104.029,-115.335Z" style="fill:white;fill-rule:nonzero;"/>
        <path id="path3328" d="M119.866,-100.899L123.826,-100.899C124.184,-100.908 124.467,-100.998 124.676,-101.169C124.886,-101.34 125.034,-101.538 125.122,-101.763L126.418,-104.643L136.21,-104.643L137.506,-101.799C137.659,-101.462 137.829,-101.227 138.014,-101.092C138.199,-100.958 138.45,-100.894 138.766,-100.899L142.762,-100.899C143.037,-100.909 143.233,-101.006 143.351,-101.191C143.469,-101.377 143.476,-101.591 143.374,-101.835L132.106,-126.062C132.049,-126.173 131.965,-126.266 131.854,-126.341C131.743,-126.416 131.623,-126.455 131.494,-126.458L131.134,-126.458C131.005,-126.455 130.885,-126.416 130.774,-126.341C130.663,-126.266 130.579,-126.173 130.522,-126.062L119.254,-101.835C119.151,-101.591 119.159,-101.377 119.276,-101.191C119.394,-101.006 119.591,-100.909 119.866,-100.899ZM128.578,-109.539L131.278,-115.479L131.314,-115.479L134.05,-109.539L128.578,-109.539Z" style="fill:white;fill-rule:nonzero;"/>
        <path id="path3330" d="M148.632,-100.935C148.686,-100.824 148.766,-100.731 148.87,-100.656C148.974,-100.581 149.099,-100.542 149.244,-100.539L149.604,-100.539C149.748,-100.542 149.873,-100.581 149.977,-100.656C150.081,-100.731 150.161,-100.824 150.216,-100.935L161.52,-125.162C161.622,-125.406 161.615,-125.621 161.497,-125.806C161.379,-125.991 161.183,-126.089 160.908,-126.098L156.12,-126.098C155.973,-126.093 155.844,-126.05 155.733,-125.968C155.622,-125.886 155.547,-125.798 155.508,-125.702L149.568,-112.563L149.352,-112.563L143.412,-125.702C143.373,-125.798 143.298,-125.886 143.187,-125.968C143.076,-126.05 142.947,-126.093 142.8,-126.098L138.012,-126.098C137.737,-126.088 137.54,-125.991 137.422,-125.806C137.305,-125.621 137.297,-125.406 137.4,-125.162L148.632,-100.935Z" style="fill:white;fill-rule:nonzero;"/>
        <path id="path3332" d="M160.88,-113.463C160.968,-109.774 162.222,-106.72 164.642,-104.301C167.061,-101.881 170.115,-100.627 173.804,-100.539C177.494,-100.627 180.554,-101.881 182.984,-104.301C185.413,-106.72 186.673,-109.774 186.763,-113.463C186.673,-117.154 185.413,-120.22 182.984,-122.661C180.554,-125.101 177.494,-126.367 173.804,-126.458C170.115,-126.367 167.061,-125.101 164.642,-122.661C162.222,-120.22 160.968,-117.154 160.88,-113.463ZM166.64,-113.463C166.693,-115.497 167.396,-117.198 168.75,-118.566C170.104,-119.934 171.788,-120.645 173.804,-120.699C175.836,-120.645 177.531,-119.934 178.889,-118.566C180.246,-117.198 180.951,-115.497 181.004,-113.463C180.951,-111.447 180.246,-109.763 178.889,-108.409C177.531,-107.055 175.836,-106.352 173.804,-106.299C171.788,-106.352 170.104,-107.055 168.75,-108.409C167.396,-109.763 166.693,-111.447 166.64,-113.463Z" style="fill:white;fill-rule:nonzero;"/>
        <path id="path3334" d="M194.362,-101.583C194.368,-101.397 194.437,-101.238 194.569,-101.106C194.701,-100.974 194.86,-100.905 195.046,-100.899L199.366,-100.899C199.552,-100.905 199.711,-100.974 199.843,-101.106C199.975,-101.238 200.044,-101.397 200.05,-101.583L200.05,-120.807L205.198,-120.807C205.4,-120.813 205.563,-120.882 205.688,-121.014C205.814,-121.146 205.878,-121.305 205.882,-121.491L205.882,-125.414C205.878,-125.6 205.814,-125.759 205.688,-125.891C205.563,-126.023 205.4,-126.092 205.198,-126.098L189.214,-126.098C189.012,-126.092 188.849,-126.023 188.724,-125.891C188.598,-125.759 188.534,-125.6 188.53,-125.414L188.53,-121.491C188.534,-121.305 188.598,-121.146 188.724,-121.014C188.849,-120.882 189.012,-120.813 189.214,-120.807L194.362,-120.807L194.362,-101.583Z" style="fill:white;fill-rule:nonzero;"/>
        <path id="path3336" d="M209.474,-101.583C209.48,-101.397 209.549,-101.238 209.681,-101.106C209.813,-100.974 209.972,-100.905 210.158,-100.899L214.478,-100.899C214.664,-100.905 214.823,-100.974 214.955,-101.106C215.087,-101.238 215.156,-101.397 215.162,-101.583L215.162,-125.414C215.156,-125.6 215.087,-125.759 214.955,-125.891C214.823,-126.023 214.664,-126.092 214.478,-126.098L210.158,-126.098C209.972,-126.092 209.813,-126.023 209.681,-125.891C209.549,-125.759 209.48,-125.6 209.474,-125.414L209.474,-101.583Z" style="fill:white;fill-rule:nonzero;"/>
        <path id="path3338" d="M219.52,-113.463C219.609,-109.774 220.863,-106.72 223.282,-104.301C225.702,-101.881 228.756,-100.627 232.444,-100.539C236.134,-100.627 239.194,-101.881 241.624,-104.301C244.054,-106.72 245.314,-109.774 245.404,-113.463C245.314,-117.154 244.054,-120.22 241.624,-122.661C239.194,-125.101 236.134,-126.367 232.444,-126.458C228.756,-126.367 225.702,-125.101 223.282,-122.661C220.863,-120.22 219.609,-117.154 219.52,-113.463ZM225.28,-113.463C225.334,-115.497 226.037,-117.198 227.391,-118.566C228.745,-119.934 230.429,-120.645 232.444,-120.699C234.477,-120.645 236.172,-119.934 237.529,-118.566C238.887,-117.198 239.592,-115.497 239.644,-113.463C239.592,-111.447 238.887,-109.763 237.529,-108.409C236.172,-107.055 234.477,-106.352 232.444,-106.299C230.429,-106.352 228.745,-107.055 227.391,-108.409C226.037,-109.763 225.334,-111.447 225.28,-113.463Z" style="fill:white;fill-rule:nonzero;"/>
        <path id="path3340" d="M249.763,-101.583C249.769,-101.397 249.838,-101.238 249.97,-101.106C250.102,-100.974 250.261,-100.905 250.447,-100.899L254.731,-100.899C254.932,-100.905 255.096,-100.974 255.221,-101.106C255.346,-101.238 255.411,-101.397 255.415,-101.583L255.415,-115.011C255.416,-115.011 255.422,-115.011 255.433,-115.011C255.443,-115.011 255.449,-115.011 255.451,-115.011L269.67,-100.719C269.715,-100.68 269.788,-100.641 269.891,-100.602C269.994,-100.563 270.076,-100.542 270.138,-100.539L270.714,-100.539C270.9,-100.543 271.059,-100.606 271.191,-100.728C271.323,-100.849 271.392,-101.002 271.398,-101.187L271.398,-125.414C271.392,-125.6 271.323,-125.759 271.191,-125.891C271.059,-126.023 270.9,-126.092 270.714,-126.098L266.394,-126.098C266.193,-126.092 266.029,-126.023 265.904,-125.891C265.779,-125.759 265.714,-125.6 265.71,-125.414L265.71,-112.635C265.708,-112.635 265.702,-112.635 265.692,-112.635C265.682,-112.635 265.676,-112.635 265.674,-112.635L251.311,-126.458L250.411,-126.458C250.225,-126.453 250.066,-126.391 249.934,-126.269C249.802,-126.148 249.733,-125.995 249.727,-125.81L249.763,-101.583Z" style="fill:white;fill-rule:nonzero;"/>
    </g>
    <g id="path3344" transform="matrix(1,0,0,1,-14.4391,140.839)">
        <path d="M42.894,-89.712C42.9,-89.423 43,-89.177 43.194,-88.972C43.389,-88.767 43.643,-88.66 43.956,-88.65L57.817,-88.65C61.235,-88.708 64.097,-89.724 66.404,-91.696C68.71,-93.669 69.91,-96.249 70.002,-99.437C69.875,-101.99 68.997,-103.997 67.368,-105.46C65.739,-106.922 64.12,-107.952 62.512,-108.548C63.931,-109.258 65.34,-110.367 66.739,-111.873C68.137,-113.38 68.89,-115.215 68.996,-117.379C68.907,-120.38 67.729,-122.846 65.46,-124.778C63.192,-126.709 60.365,-127.708 56.979,-127.775L43.956,-127.775C43.643,-127.766 43.389,-127.658 43.194,-127.453C43,-127.248 42.9,-127.002 42.894,-126.713L42.894,-89.712ZM51.613,-111.901L51.613,-119.726L55.973,-119.726C57.065,-119.708 57.982,-119.354 58.725,-118.664C59.468,-117.975 59.855,-117.062 59.885,-115.926C59.855,-114.78 59.468,-113.83 58.725,-113.075C57.982,-112.321 57.065,-111.929 55.973,-111.901L51.613,-111.901ZM51.613,-96.643L51.613,-104.635L56.14,-104.635C57.285,-104.612 58.321,-104.239 59.249,-103.518C60.177,-102.796 60.669,-101.864 60.724,-100.723C60.692,-99.55 60.294,-98.584 59.529,-97.824C58.764,-97.063 57.821,-96.67 56.699,-96.643L51.613,-96.643Z" style="fill:rgb(204,204,204);fill-rule:nonzero;"/>
    </g>
    <g id="path3347" transform="matrix(-1,0,0,1,-14.4391,140.839)">
        <path d="M-41.547,-89.584C-41.541,-89.296 -41.441,-89.049 -41.246,-88.844C-41.052,-88.639 -40.798,-88.532 -40.485,-88.522L-26.624,-88.522C-23.206,-88.581 -20.344,-89.596 -18.037,-91.569C-15.73,-93.541 -14.531,-96.121 -14.439,-99.31C-14.566,-101.862 -15.444,-103.869 -17.073,-105.332C-18.702,-106.795 -20.321,-107.824 -21.929,-108.42C-20.509,-109.13 -19.1,-110.239 -17.702,-111.746C-16.303,-113.252 -15.551,-115.088 -15.445,-117.251C-15.534,-120.252 -16.712,-122.718 -18.98,-124.65C-21.249,-126.581 -24.076,-127.581 -27.462,-127.647L-40.485,-127.647C-40.798,-127.638 -41.052,-127.53 -41.246,-127.326C-41.441,-127.121 -41.541,-126.874 -41.547,-126.585L-41.547,-89.584ZM-32.828,-111.774L-32.828,-119.598L-28.468,-119.598C-27.376,-119.58 -26.458,-119.226 -25.715,-118.537C-24.972,-117.847 -24.586,-116.934 -24.556,-115.798C-24.586,-114.652 -24.972,-113.702 -25.715,-112.947C-26.458,-112.193 -27.376,-111.802 -28.468,-111.774L-32.828,-111.774ZM-32.828,-96.515L-32.828,-104.508L-28.3,-104.508C-27.156,-104.484 -26.119,-104.112 -25.191,-103.39C-24.263,-102.668 -23.772,-101.736 -23.717,-100.595C-23.749,-99.423 -24.147,-98.456 -24.912,-97.696C-25.677,-96.935 -26.62,-96.542 -27.741,-96.515L-32.828,-96.515Z" style="fill:white;fill-rule:nonzero;"/>
    </g>
    <path id="path3050" d="M32.274,4.862C32.274,7.548 30.097,9.725 27.411,9.725C24.726,9.725 22.549,7.548 22.549,4.862C22.549,2.177 24.726,0 27.411,0C30.097,0 32.274,2.177 32.274,4.862Z" style="fill:white;"/>
</svg>
